<?xml version="1.0" encoding="UTF-8"?>
<svg version="1.1" xmlns="http://www.w3.org/2000/svg" width="512" height="512">
<path d="M0 0 C13.00577928 5.52996914 26.32850008 9.29346797 40.57910156 9.37353516 C41.25668015 9.37850006 41.93425873 9.38346497 42.63237 9.38858032 C44.85494034 9.40307794 47.07743913 9.40998603 49.30004883 9.41552734 C50.06800341 9.41835472 50.83595798 9.4211821 51.62718391 9.42409515 C55.69807395 9.43904376 59.76892901 9.4482983 63.83984375 9.45263672 C67.99825301 9.45808931 72.15632953 9.48206122 76.31463528 9.51060867 C79.55189372 9.52944829 82.78907578 9.534452 86.02638435 9.5359726 C87.55664942 9.53895611 89.08691459 9.54683435 90.61712456 9.56015778 C104.71717765 9.67408141 118.06063347 7.93110396 131.36645508 2.96240234 C132.19999512 2.66229248 133.03353516 2.36218262 133.89233398 2.05297852 C140.14255974 -0.22722061 146.26997263 -2.77098237 152.3972168 -5.359375 C179.8347263 -16.78241812 209.17691322 -14.64743389 236.42895508 -3.78759766 C262.42258014 6.99024688 282.49923534 27.47455971 294.74145508 52.52490234 C295.3366394 53.73170654 295.3366394 53.73170654 295.94384766 54.96289062 C303.32654036 70.78405543 306.05809255 87.8127066 308.86645508 104.89990234 C309.05871674 106.05213287 309.25097839 107.2043634 309.44906616 108.39151001 C315.55837126 145.0564745 320.16198614 181.8662526 323.23754883 218.90869141 C323.4182122 221.08310414 323.60313111 223.25712222 323.78833008 225.43115234 C325.10599227 241.36859025 325.67568681 257.3027444 325.83435059 273.29058838 C325.85538811 275.20520332 325.88415813 277.11975247 325.92150879 279.03411865 C326.33341749 301.99574058 319.6003213 319.77111239 303.85522461 336.73876953 C289.4443986 351.62814745 267.33732372 363.05644445 246.49145508 363.58740234 C216.33754484 362.72869296 195.7070551 341.51715138 175.61645508 321.52490234 C174.81578613 320.72898682 174.01511719 319.93307129 173.19018555 319.11303711 C168.96942915 314.88040736 164.90459158 310.57146241 161.00439453 306.04174805 C143.74234929 285.21092947 143.74234929 285.21092947 122.42895508 269.21240234 C121.84761307 268.88487473 121.26627106 268.55734711 120.66731262 268.21989441 C111.84864877 263.94236926 102.55918547 264.63284116 92.99145508 264.68115234 C91.10156047 264.67845288 89.21166723 264.67456668 87.32177734 264.66955566 C83.3746204 264.66368201 79.4278273 264.67215443 75.48071289 264.69091797 C70.44390393 264.7137062 65.40794779 264.70057162 60.37117004 264.67662811 C56.47271401 264.66211223 52.5744572 264.66680256 48.67599487 264.67713928 C46.819813 264.6797906 44.9636125 264.67659354 43.10745239 264.66722107 C24.53669414 264.59400831 13.6031147 269.15314564 0.00708008 282.30615234 C-1.77679852 284.10047826 -3.55282764 285.90264104 -5.32104492 287.71240234 C-6.21436523 288.61087891 -7.10768555 289.50935547 -8.02807617 290.43505859 C-12.50104047 294.9607235 -16.83753369 299.55708051 -20.98803711 304.37988281 C-25.98600663 310.16562606 -31.29331128 315.68323067 -36.57104492 321.21240234 C-37.67947754 322.37400879 -37.67947754 322.37400879 -38.81030273 323.55908203 C-57.81111502 343.33998631 -78.56300838 362.58135951 -107.44604492 363.64990234 C-131.74668346 362.97787141 -152.9442531 348.53064327 -169.19604492 331.52490234 C-179.9957231 319.19606619 -186.67429773 303.82061747 -186.77416992 287.37255859 C-186.78122955 286.59595886 -186.78828918 285.81935913 -186.79556274 285.01922607 C-188.23700127 76.84273106 -188.23700127 76.84273106 -134.44213867 21.05615234 C-97.40948298 -16.16563847 -46.40083106 -19.78742699 0 0 Z M-59.44604492 69.89990234 C-65.05353629 78.64099182 -64.95422664 87.09443553 -64.75854492 97.27490234 C-64.74346448 98.6310072 -64.72978204 99.98712836 -64.7175293 101.34326172 C-64.68240328 104.63339836 -64.63321132 107.92268418 -64.57104492 111.21240234 C-65.42746582 111.19145508 -66.28388672 111.17050781 -67.16625977 111.14892578 C-70.39050201 111.08013034 -73.61436612 111.03030408 -76.83911133 110.99267578 C-78.22595649 110.97274892 -79.61271974 110.94559675 -80.99926758 110.91064453 C-89.93708554 110.69123239 -98.88726805 110.57880389 -106.17382812 116.51904297 C-109.99093956 120.64685764 -112.42661262 125.861573 -112.66870117 131.47802734 C-112.22890387 137.78536422 -110.38378171 142.65379373 -105.66870117 146.94287109 C-99.77252415 151.56538604 -95.93014416 152.34092324 -88.39916992 152.31005859 C-87.71675232 152.30864365 -87.03433472 152.3072287 -86.33123779 152.30577087 C-84.16112808 152.30019318 -81.99112322 152.28764488 -79.82104492 152.27490234 C-78.345786 152.26988446 -76.87052545 152.26532205 -75.39526367 152.26123047 C-71.78715694 152.25023109 -68.17911117 152.23298187 -64.57104492 152.21240234 C-64.5946106 153.45944946 -64.5946106 153.45944946 -64.61865234 154.73168945 C-64.67020325 157.85715371 -64.70759847 160.98239909 -64.73583984 164.1081543 C-64.7580995 166.1098481 -64.79624638 168.11134509 -64.8347168 170.11279297 C-64.90992388 180.06519654 -64.27858359 188.30804321 -57.23120117 195.77099609 C-52.76590425 199.64792448 -47.74422244 200.8554045 -41.97338867 200.61865234 C-36.50173389 199.69336438 -31.49511448 197.4754956 -27.86401367 193.20458984 C-24.39686077 187.78903689 -23.42517385 183.31356512 -23.47338867 176.91943359 C-23.47480362 176.213405 -23.47621857 175.5073764 -23.47767639 174.779953 C-23.48326728 172.52822609 -23.49581804 170.27659913 -23.50854492 168.02490234 C-23.5135611 166.49690899 -23.5181238 164.96891407 -23.5222168 163.44091797 C-23.53323372 159.698041 -23.55049205 155.95523861 -23.57104492 152.21240234 C-22.19553467 152.25167847 -22.19553467 152.25167847 -20.79223633 152.29174805 C-17.34415558 152.37767813 -13.89723497 152.43998765 -10.44848633 152.48706055 C-8.96457814 152.51199072 -7.48078998 152.5459486 -5.99731445 152.58959961 C2.94790076 152.84595271 10.94734435 152.86370245 18.42895508 147.21240234 C23.62061111 141.70646855 24.85043737 136.42328944 24.77270508 129.06787109 C24.07100101 123.23894302 20.73893873 119.19263817 16.49145508 115.33740234 C11.13610461 111.62144488 6.50611215 110.9638308 0.06176758 111.01708984 C-0.61782013 111.01991974 -1.29740784 111.02274963 -1.99758911 111.02566528 C-4.147261 111.0367727 -6.29650106 111.06185844 -8.44604492 111.08740234 C-9.9121847 111.0974444 -11.37833107 111.1065681 -12.84448242 111.11474609 C-16.42014124 111.13668075 -19.99555086 111.1711442 -23.57104492 111.21240234 C-23.55009766 110.28492188 -23.52915039 109.35744141 -23.50756836 108.40185547 C-23.43898994 104.92779406 -23.38905165 101.45446223 -23.35131836 97.97998047 C-23.33132574 96.48246845 -23.30412194 94.98503326 -23.26928711 93.48779297 C-22.95519711 80.39707257 -22.95519711 80.39707257 -29.31713867 69.18896484 C-34.50207578 65.04580494 -38.47505632 62.6908318 -45.38745117 62.89990234 C-51.00362344 63.70364793 -55.33828122 66.06003627 -59.44604492 69.89990234 Z M196.05395508 77.21240234 C192.04782632 84.60833236 190.98196605 92.76859498 193.15161133 100.93115234 C196.70438217 110.48192092 202.41477993 115.71264337 211.42895508 120.21240234 C219.3363192 122.83240722 227.88378001 121.75904205 235.31567383 118.33349609 C242.43654628 114.55587984 246.38376965 108.48869915 249.80395508 101.33740234 C251.70400366 91.83715942 250.34127762 84.41297831 245.67895508 76.08740234 C240.00400645 68.83607909 233.15747498 64.23789993 223.91723633 62.82958984 C212.09904673 62.27300321 203.1717426 68.22151285 196.05395508 77.21240234 Z M150.42895508 151.21240234 C144.27235446 160.25174067 142.37009319 167.20023869 143.42895508 178.21240234 C144.64046639 181.89539673 146.30220517 184.98220828 148.42895508 188.21240234 C149.02708008 189.14052734 149.62520508 190.06865234 150.24145508 191.02490234 C156.21768259 197.00112985 163.24866677 200.22086807 171.67895508 200.58740234 C180.36837301 200.38696801 187.35235916 197.20106917 193.67114258 191.27880859 C198.86862657 185.16887741 201.85195022 177.58349153 201.70239258 169.55224609 C200.70758618 161.03954566 196.89955453 153.78571164 190.42895508 148.21240234 C177.61103599 139.52999431 161.61212791 139.52090348 150.42895508 151.21240234 Z " fill="#000000" transform="translate(186.571044921875,80.78759765625)"/>
</svg>
