<?xml version="1.0" encoding="UTF-8"?>
<svg version="1.1" xmlns="http://www.w3.org/2000/svg" width="512" height="512">
<path d="M0 0 C1.14609741 -0.00524185 2.29219482 -0.0104837 3.47302246 -0.0158844 C5.88679192 -0.02228389 8.30059265 -0.02099461 10.71435547 -0.01245117 C14.39477292 -0.00393281 18.07364147 -0.03274789 21.75390625 -0.06445312 C24.10677037 -0.0660652 26.45963722 -0.06548749 28.8125 -0.0625 C29.90542358 -0.07373398 30.99834717 -0.08496796 32.12438965 -0.09654236 C39.22010594 -0.03220851 45.12380975 0.82897319 50.42492676 5.88087463 C62.86245386 20.11935812 55.90625 33.32141032 55.90625 55.43359375 C104.74625 55.43359375 153.58625 55.43359375 203.90625 55.43359375 C203.90625 41.90359375 203.90625 28.37359375 203.90625 14.43359375 C210.9516901 3.16088959 210.9516901 3.16088959 218.90625 0.43359375 C221.45231628 0.16616821 221.45231628 0.16616821 224.18041992 0.14306641 C225.2088652 0.1303067 226.23731049 0.117547 227.29692078 0.10440063 C228.39905411 0.10217499 229.50118744 0.09994934 230.63671875 0.09765625 C231.78231766 0.09099945 232.92791656 0.08434265 234.10823059 0.07748413 C236.5315287 0.06736692 238.95485462 0.06266682 241.37817383 0.06298828 C245.06313788 0.05862996 248.74688953 0.02233925 252.43164062 -0.015625 C254.7916626 -0.02149647 257.15169022 -0.02546365 259.51171875 -0.02734375 C260.60373093 -0.04171478 261.6957431 -0.05608582 262.82084656 -0.07089233 C270.8177892 -0.02376824 277.97997473 1.26866353 284.34375 6.3984375 C284.859375 7.04941406 285.375 7.70039062 285.90625 8.37109375 C286.710625 9.34369141 286.710625 9.34369141 287.53125 10.3359375 C290.98591807 15.60626919 291.17995892 20.11765699 291.1015625 26.234375 C291.09731766 27.48893745 291.09731766 27.48893745 291.09298706 28.7688446 C291.0818332 31.42807601 291.05673763 34.08696493 291.03125 36.74609375 C291.02121399 38.55403158 291.01208923 40.36197471 291.00390625 42.16992188 C290.98190959 46.59127687 290.94741294 51.01237733 290.90625 55.43359375 C291.46620163 55.4247113 292.02615326 55.41582886 292.60307312 55.40667725 C298.49284534 55.31737785 304.3824217 55.25752155 310.27270508 55.21386719 C312.4635399 55.19389633 314.65432243 55.16670997 316.8449707 55.13183594 C334.1247722 54.86387094 349.92173694 55.27511607 363.34765625 67.69140625 C375.05675185 79.9984952 377.21138963 92.10808728 377.17367554 108.57583618 C377.17741502 110.12369011 377.18201772 111.67154216 377.18740618 113.21939123 C377.19961507 117.46130137 377.1993782 121.70313251 377.19701743 125.9450562 C377.19660872 130.52465223 377.20765364 135.10422311 377.21713257 139.68380737 C377.23373256 148.65239156 377.23924169 157.62094945 377.24035732 166.58954771 C377.24130839 173.88233792 377.24542159 181.17511948 377.25175858 188.46790695 C377.26936917 209.15663756 377.27859787 229.84534743 377.27709763 250.53408559 C377.27701772 251.64899457 377.2769378 252.76390355 377.27685547 253.91259766 C377.27677371 255.02887245 377.27669195 256.14514725 377.27660771 257.29524855 C377.27579512 275.37865888 377.29492633 293.46198586 377.3231322 311.54537208 C377.35188329 330.12536278 377.36567123 348.70531286 377.36394465 367.28532636 C377.36328146 377.71166274 377.36874244 388.13791175 377.39030075 398.56422806 C377.40854194 407.44303132 377.41283586 416.32170763 377.3992819 425.20052154 C377.39276675 429.72684601 377.39258226 434.25292713 377.4099884 438.77922821 C377.42578902 442.93090536 377.42278482 447.08214765 377.40542014 451.23381464 C377.40236551 452.72776017 377.40592403 454.22173872 377.41714029 455.71564527 C377.54365268 473.77656406 372.70586291 487.94264841 360.328125 501.171875 C349.07327029 511.68245706 336.64689198 512.87885523 322.02908325 512.8212738 C320.3049853 512.82544977 318.58089009 512.83092873 316.85679996 512.83759362 C312.13245798 512.85203245 307.40829069 512.84780836 302.68393922 512.8404268 C297.58361825 512.83569358 292.48333498 512.84820637 287.38302612 512.85844421 C277.39621724 512.87563456 267.40947126 512.87647171 257.42265143 512.87123131 C249.30462769 512.86718878 241.18662255 512.86863417 233.0685997 512.87397957 C231.91289406 512.87472799 230.75718843 512.87547641 229.56646141 512.87624751 C227.21859225 512.877779 224.8707231 512.87931735 222.52285396 512.88086248 C200.50813391 512.89458841 178.49344942 512.8891492 156.47873019 512.87767727 C136.34346831 512.86774508 116.20829833 512.88068517 96.07305063 512.90461146 C75.39234608 512.92900054 54.71168433 512.93861078 34.03096569 512.93195873 C22.42264628 512.92846606 10.81439755 512.93070181 -0.79391098 512.94820976 C-10.67592371 512.96292932 -20.557816 512.96357034 -30.43982635 512.94613885 C-35.48019031 512.93762447 -40.52033908 512.93549012 -45.56069183 512.95079041 C-50.17847121 512.96463424 -54.79585101 512.95987815 -59.41360725 512.94055117 C-61.08041274 512.93678993 -62.74725021 512.9397167 -64.4140272 512.95016282 C-78.89317939 513.0344251 -90.56956422 510.3762627 -101.44140625 500.24609375 C-114.20471323 486.95009449 -117.56026099 471.78936074 -117.48143005 453.92385864 C-117.48560939 452.37270119 -117.49109019 450.8215468 -117.49774987 449.27039802 C-117.5121445 445.03329545 -117.50797857 440.79638839 -117.50058305 436.55927539 C-117.4958388 431.97974518 -117.50837232 427.4002565 -117.51860046 422.82073975 C-117.53576923 413.85890295 -117.53663246 404.89713634 -117.53138756 395.93528737 C-117.52734103 388.64875446 -117.52879515 381.36224223 -117.53413582 374.0757103 C-117.53488424 373.03741826 -117.53563266 371.99912622 -117.53640376 370.92937078 C-117.53793529 368.81987016 -117.53947364 366.71036954 -117.54101873 364.60086893 C-117.55473683 344.83224411 -117.54931094 325.0636589 -117.53783352 305.29503499 C-117.52790195 287.22406929 -117.54084174 269.153206 -117.56476771 251.08225609 C-117.58917134 232.51008062 -117.59876346 213.93795282 -117.59211498 195.36576164 C-117.58862557 184.94565533 -117.59083652 174.52562776 -117.60836601 164.1055336 C-117.62310378 155.23518514 -117.62370283 146.36497086 -117.6062951 137.49462499 C-117.59779572 132.97245895 -117.59560954 128.45053247 -117.61094666 123.92837906 C-117.62483544 119.78180033 -117.6199772 115.63566545 -117.60070742 111.48911212 C-117.5969599 109.99595025 -117.5998331 108.50275246 -117.61031907 107.00962271 C-117.7142221 91.07035877 -114.10270197 79.16105109 -103.18359375 67.37109375 C-93.14456448 57.80618701 -80.44058624 55.09800764 -67.03125 55.23828125 C-65.99935547 55.24111115 -64.96746094 55.24394104 -63.90429688 55.24685669 C-60.63399268 55.25798123 -57.36397032 55.28307149 -54.09375 55.30859375 C-51.86588939 55.31863353 -49.63802446 55.32775763 -47.41015625 55.3359375 C-41.97125929 55.3578952 -36.53252479 55.39129515 -31.09375 55.43359375 C-31.1251709 53.76973633 -31.1251709 53.76973633 -31.15722656 52.07226562 C-31.23003467 47.92754196 -31.27569695 43.78287399 -31.31347656 39.63769531 C-31.33349959 37.84918691 -31.36072654 36.06074321 -31.39550781 34.27246094 C-31.44443955 31.69059213 -31.46681165 29.10959425 -31.484375 26.52734375 C-31.50502014 25.73743042 -31.52566528 24.94751709 -31.54693604 24.13366699 C-31.54954092 17.57942274 -29.63693884 12.51569642 -25.453125 7.4453125 C-24.65648438 6.78982422 -24.65648438 6.78982422 -23.84375 6.12109375 C-23.32296875 5.67121094 -22.8021875 5.22132813 -22.265625 4.7578125 C-14.98975556 0.32162592 -8.3252303 -0.02236192 0 0 Z M-3.09375 25.43359375 C-3.09375 47.54359375 -3.09375 69.65359375 -3.09375 92.43359375 C8.12625 92.43359375 19.34625 92.43359375 30.90625 92.43359375 C30.90625 70.32359375 30.90625 48.21359375 30.90625 25.43359375 C19.68625 25.43359375 8.46625 25.43359375 -3.09375 25.43359375 Z M227.90625 25.43359375 C227.90625 47.54359375 227.90625 69.65359375 227.90625 92.43359375 C240.11625 92.43359375 252.32625 92.43359375 264.90625 92.43359375 C264.90625 70.32359375 264.90625 48.21359375 264.90625 25.43359375 C252.69625 25.43359375 240.48625 25.43359375 227.90625 25.43359375 Z M-87.96875 89.30859375 C-103.56859579 112.24954344 -92.09375 144.69116485 -92.09375 172.43359375 C54.42625 172.43359375 200.94625 172.43359375 351.90625 172.43359375 C358.33748636 127.10848484 358.33748636 127.10848484 347.00390625 88.09375 C346.33230469 87.56652344 345.66070312 87.03929688 344.96875 86.49609375 C344.29972656 85.95082031 343.63070313 85.40554687 342.94140625 84.84375 C339.30529199 82.32429271 336.69210379 81.18202312 332.22949219 81.20654297 C331.30883972 81.20669403 330.38818726 81.20684509 329.43963623 81.20700073 C328.45408752 81.2173233 327.46853882 81.22764587 326.453125 81.23828125 C325.43776672 81.24111115 324.42240845 81.24394104 323.37628174 81.24685669 C320.13615084 81.25804374 316.89629724 81.28314584 313.65625 81.30859375 C311.45833733 81.31862545 309.26042032 81.32775097 307.0625 81.3359375 C301.67698886 81.35797824 296.29163924 81.39144124 290.90625 81.43359375 C290.84638916 82.60712402 290.78652832 83.7806543 290.72485352 84.98974609 C290.64099874 86.54135256 290.55692128 88.09294701 290.47265625 89.64453125 C290.41446716 90.80263306 290.41446716 90.80263306 290.35510254 91.98413086 C289.93190039 99.61812511 288.98413146 104.77893222 283.15625 110.24609375 C275.21891593 116.63965275 267.21873352 117.58930495 257.328125 117.63671875 C256.40211487 117.64241882 255.47610474 117.6481189 254.52203369 117.6539917 C252.56531916 117.66341937 250.6085889 117.66996679 248.65185547 117.67382812 C245.68037732 117.6835151 242.70959675 117.71455217 239.73828125 117.74609375 C237.83073324 117.75262659 235.92318032 117.75787595 234.015625 117.76171875 C232.6979715 117.78023895 232.6979715 117.78023895 231.35369873 117.7991333 C224.17303457 117.77360251 216.59651578 116.61203808 211.03125 111.68359375 C210.49757813 111.235 209.96390625 110.78640625 209.4140625 110.32421875 C202.4620632 101.60720408 204.46846391 92.6778719 203.90625 81.43359375 C155.06625 81.43359375 106.22625 81.43359375 55.90625 81.43359375 C55.57625 88.03359375 55.24625 94.63359375 54.90625 101.43359375 C51.07833482 109.08942411 48.79351851 113.23297438 40.82006836 116.04541016 C35.82176129 117.64246493 31.18872457 117.8687459 25.97265625 117.83203125 C25.05467758 117.83490143 24.13669891 117.83777161 23.19090271 117.84072876 C21.26227191 117.84275723 19.33361996 117.83731326 17.4050293 117.82470703 C14.47983 117.80865455 11.55601603 117.82458798 8.63085938 117.84375 C6.74478866 117.84176699 4.8587188 117.83792213 2.97265625 117.83203125 C1.681567 117.84114029 1.681567 117.84114029 0.36439514 117.85043335 C-8.20645539 117.75291045 -16.33156664 115.93769648 -23.09375 110.43359375 C-29.25759616 103.98957277 -30.37037323 98.12285611 -30.71875 89.55859375 C-30.77675781 88.38296875 -30.77675781 88.38296875 -30.8359375 87.18359375 C-30.92941622 85.26728008 -31.01263495 83.35047056 -31.09375 81.43359375 C-37.49815521 81.30627935 -43.90223125 81.2190281 -50.30761719 81.15893555 C-52.48417354 81.13387119 -54.66064639 81.09981044 -56.83691406 81.05639648 C-59.97481954 80.99538963 -63.11160737 80.96730253 -66.25 80.9453125 C-67.21490356 80.91950607 -68.17980713 80.89369965 -69.1739502 80.86711121 C-77.18274316 80.86382489 -82.54348417 83.4184609 -87.96875 89.30859375 Z M-92.09375 198.43359375 C-92.155625 241.58109375 -92.2175 284.72859375 -92.28125 329.18359375 C-92.30856201 342.80479492 -92.33587402 356.42599609 -92.36401367 370.45996094 C-92.37404731 382.67568856 -92.37404731 382.67568856 -92.38008118 394.89141846 C-92.38287478 400.33009786 -92.39386229 405.76868734 -92.41047668 411.20733643 C-92.42962801 417.48576736 -92.43824495 423.7641095 -92.43408485 430.04256983 C-92.4322844 433.25149491 -92.43675155 436.46018264 -92.45139539 439.66908026 C-92.4663868 443.11489395 -92.46269471 446.56021676 -92.45451355 450.00604248 C-92.46325154 450.99412022 -92.47198954 451.98219795 -92.48099232 453.00021744 C-92.41410501 463.53078528 -90.64350833 474.58341521 -83.09375 482.43359375 C-75.08390629 488.49090592 -66.1136869 488.14035615 -56.54516602 488.06851196 C-54.86898485 488.07427931 -53.19281001 488.08222454 -51.51664829 488.09214818 C-46.92933545 488.1129606 -42.34254479 488.10273195 -37.75523043 488.08721709 C-32.80080464 488.07588451 -27.84646741 488.09337576 -22.89205933 488.1071167 C-13.19377156 488.12933325 -3.49567743 488.12455494 6.20261788 488.11005349 C14.0856054 488.09875504 21.96853869 488.09723299 29.85153198 488.10267258 C30.97408652 488.10343874 32.09664105 488.10420491 33.25321239 488.10499429 C35.53376176 488.10659294 37.8143111 488.10821401 40.09486043 488.10985725 C61.47245504 488.12411012 82.84994238 488.10772924 104.22751939 488.08085541 C122.56481924 488.05851708 140.90196082 488.06239734 159.23925781 488.08544922 C180.54109458 488.11221535 201.84283737 488.12273686 223.14468861 488.1073879 C225.41678173 488.10579518 227.68887487 488.10422332 229.96096802 488.10267258 C231.07883979 488.1019012 232.19671156 488.10112982 233.34845823 488.10033507 C241.22068092 488.09602052 249.09284393 488.10329936 256.96505737 488.11507034 C266.56054868 488.12910287 276.15583551 488.12527944 285.75130343 488.09866662 C290.64577025 488.08553869 295.53989632 488.08035871 300.4343605 488.09691238 C304.91768094 488.11184604 309.4003458 488.10356758 313.88360703 488.07702462 C315.50258048 488.07145411 317.12160967 488.07424795 318.74054706 488.08640356 C327.59479092 488.14776847 335.56181738 487.98769977 342.90625 482.43359375 C351.2550303 473.75259853 352.36872096 461.50694708 352.26701355 450.00604248 C352.27086563 448.3835836 352.27086563 448.3835836 352.27479553 446.72834778 C352.27972217 443.12831322 352.2632548 439.5287066 352.24682617 435.92871094 C352.24590631 433.29400348 352.24617619 430.65932077 352.24792194 428.02461624 C352.24950963 421.70314523 352.23572916 415.38180324 352.21641796 409.06036527 C352.19473002 401.74027278 352.19242891 394.42022459 352.19006348 387.10009766 C352.17434329 367.79457606 352.13245964 348.48908294 352.09375 329.18359375 C352.031875 286.03609375 351.97 242.88859375 351.90625 198.43359375 C205.38625 198.43359375 58.86625 198.43359375 -92.09375 198.43359375 Z " fill="#000000" transform="translate(126.09375,-0.43359375)"/>
<path d="M0 0 C3.92745798 1.02339853 7.04850829 2.86705128 9.46606445 6.19482422 C10.62756264 8.21095896 11.66486637 10.25957733 12.68359375 12.3515625 C13.08715088 13.14852539 13.49070801 13.94548828 13.90649414 14.76660156 C14.8379833 16.61289446 15.76161867 18.46316168 16.67919922 20.31640625 C18.21644742 23.41577871 19.77006439 26.50623156 21.32958984 29.59442139 C24.52273878 35.91790618 27.70570349 42.24655895 30.8671875 48.5859375 C31.16996109 49.18954102 31.47273468 49.79314453 31.78468323 50.41503906 C34.18060487 55.23241941 34.18060487 55.23241941 34.97984314 57.53756714 C35.69392728 59.70302496 35.69392728 59.70302496 37.30859375 62.6015625 C40.00722721 63.93348908 40.00722721 63.93348908 43.2578125 64.203125 C44.48387207 64.38053223 45.70993164 64.55793945 46.97314453 64.74072266 C48.31410518 64.90285485 49.65508885 65.06479673 50.99609375 65.2265625 C52.37400886 65.41767638 53.75145081 65.61223032 55.12841797 65.81005859 C58.02401303 66.2220904 60.92114457 66.61760629 63.82080078 67 C70.50087172 67.88627874 77.16330658 68.88655323 83.82388306 69.90789795 C85.90151347 70.22171688 87.98099441 70.51930149 90.0612793 70.81494141 C91.33140869 71.00491699 92.60153809 71.19489258 93.91015625 71.390625 C95.02729004 71.55256348 96.14442383 71.71450195 97.29541016 71.88134766 C101.5860492 72.90690147 104.39949398 74.76617352 107.62109375 77.7265625 C109.91770054 81.6393 110.29864334 85.16817866 109.30859375 89.6015625 C106.27611969 95.06920512 101.99280273 99.18315275 97.55859375 103.5390625 C96.54152344 104.55516602 96.54152344 104.55516602 95.50390625 105.59179688 C92.19655285 108.87085542 88.84158293 112.04622305 85.3125 115.0859375 C80.98860649 118.81857012 76.99535002 122.83927731 72.99609375 126.9140625 C71.60652937 128.32914689 70.21469675 129.74200849 68.8203125 131.15234375 C68.21662842 131.76762939 67.61294434 132.38291504 66.9909668 133.0168457 C65.30859375 134.6015625 65.30859375 134.6015625 62.30859375 136.6015625 C62.86643644 144.28409166 63.9500018 151.73768705 65.41015625 159.296875 C65.82206641 161.49861344 66.23351091 163.70043903 66.64453125 165.90234375 C67.28885628 169.32415233 67.93714858 172.74507547 68.59375 176.16455078 C69.23156361 179.49827268 69.85317189 182.83470545 70.47265625 186.171875 C70.77098862 187.6909697 70.77098862 187.6909697 71.0753479 189.24075317 C72.36813746 196.28656293 73.39982082 203.21233242 69.49609375 209.5390625 C66.31992238 212.53373837 64.54281458 213.453456 60.18359375 213.9765625 C51.36029225 213.12269461 43.33717162 208.21226728 35.62109375 204.1015625 C33.61201239 203.04290571 31.60289672 201.984314 29.59375 200.92578125 C28.56652832 200.38228027 27.53930664 199.8387793 26.48095703 199.27880859 C21.18080694 196.47658979 15.87037383 193.69415415 10.55859375 190.9140625 C9.08579956 190.13869141 9.08579956 190.13869141 7.58325195 189.34765625 C6.672771 188.87070312 5.76229004 188.39375 4.82421875 187.90234375 C4.02274414 187.48122314 3.22126953 187.06010254 2.39550781 186.6262207 C0.20309501 185.49180841 0.20309501 185.49180841 -2.69140625 184.6015625 C-5.53273196 185.71217666 -5.53273196 185.71217666 -8.66015625 187.43359375 C-9.54281914 187.8948616 -9.54281914 187.8948616 -10.4433136 188.365448 C-12.36444373 189.37227717 -14.27779768 190.3930211 -16.19140625 191.4140625 C-17.50952733 192.10809476 -18.8281334 192.80120668 -20.1472168 193.4934082 C-23.40647592 195.20634908 -26.65989017 196.93005383 -29.91156006 198.65734863 C-33.31214441 200.46136907 -36.72104708 202.24956997 -40.12890625 204.03979492 C-41.65481176 204.84243252 -43.17964613 205.64711162 -44.703125 206.4543457 C-46.04552611 207.16528007 -47.38951275 207.87323179 -48.73535156 208.57763672 C-50.09784711 209.29085518 -51.45629375 210.01183956 -52.81152344 210.73876953 C-57.95375227 213.43169243 -61.85338021 214.68068007 -67.69140625 213.6015625 C-71.78391372 211.51810415 -73.99201908 209.84049352 -75.69140625 205.6015625 C-76.69569131 197.85771128 -74.90109493 190.08603424 -73.43359375 182.515625 C-72.96855102 180.0143599 -72.50371321 177.5130567 -72.0390625 175.01171875 C-71.30137329 171.10023891 -70.5594871 167.18959085 -69.81298828 163.27978516 C-69.09203031 159.48539425 -68.38702072 155.68829864 -67.68359375 151.890625 C-67.45453339 150.71770905 -67.22547302 149.54479309 -66.98947144 148.33633423 C-66.78911285 147.24775116 -66.58875427 146.15916809 -66.38232422 145.03759766 C-66.20023407 144.08180817 -66.01814392 143.12601868 -65.83053589 142.14126587 C-65.63054834 138.49064859 -66.84228211 136.59033598 -69.16845703 133.8815918 C-69.7354834 133.31867432 -70.30250977 132.75575684 -70.88671875 132.17578125 C-71.5209375 131.54349609 -72.15515625 130.91121094 -72.80859375 130.25976562 C-73.47117188 129.60943359 -74.13375 128.95910156 -74.81640625 128.2890625 C-75.45578125 127.65033203 -76.09515625 127.01160156 -76.75390625 126.35351562 C-79.95923421 123.17715147 -83.21730936 120.10916399 -86.63671875 117.1640625 C-91.11933292 113.29002964 -95.27788173 109.12565613 -99.44140625 104.9140625 C-100.18261719 104.16833984 -100.92382812 103.42261719 -101.6875 102.65429688 C-103.06075314 101.27241467 -104.43296569 99.88949687 -105.80371094 98.50512695 C-107.13386112 97.1637947 -108.4842413 95.84237538 -109.84863281 94.53588867 C-112.26627496 91.99813315 -112.95383564 90.02120805 -113.69140625 86.6015625 C-113.50541662 81.30085802 -112.45175549 78.36191174 -108.69140625 74.6015625 C-105.48380581 72.65876515 -102.48178745 72.09707651 -98.79296875 71.54833984 C-97.60493652 71.36830414 -96.4169043 71.18826843 -95.19287109 71.0027771 C-93.9136377 70.81623566 -92.6344043 70.62969421 -91.31640625 70.4375 C-89.98641409 70.23909037 -88.6564997 70.04015876 -87.32666016 69.84072876 C-84.54324919 69.424761 -81.75921773 69.0133425 -78.97460938 68.60546875 C-75.40930839 68.08312916 -71.84534796 67.55224782 -68.2817688 67.01830101 C-65.53690326 66.60751237 -62.79157773 66.199874 -60.04608154 65.79332352 C-58.09388091 65.50407085 -56.14190931 65.21327383 -54.18994141 64.92245483 C-53.00190918 64.74872345 -51.81387695 64.57499207 -50.58984375 64.39599609 C-49.54489746 64.24214447 -48.49995117 64.08829285 -47.42333984 63.92977905 C-44.69140625 63.6015625 -44.69140625 63.6015625 -40.69140625 63.6015625 C-40.43633301 62.76471924 -40.18125977 61.92787598 -39.91845703 61.06567383 C-38.57550374 57.27435584 -36.88236014 53.75035136 -35.05859375 50.17578125 C-34.70306427 49.46992386 -34.34753479 48.76406647 -33.98123169 48.03681946 C-32.84677917 45.78561265 -31.70703051 43.5371477 -30.56640625 41.2890625 C-29.45292015 39.09004901 -28.34071982 36.89040944 -27.23101807 34.68948364 C-26.490081 33.22005693 -25.74703188 31.75169331 -25.00189209 30.28439331 C-23.10869627 26.53138908 -21.29577927 22.7625358 -19.59863281 18.91650391 C-19.25776642 18.15416946 -18.91690002 17.39183502 -18.56570435 16.60639954 C-17.92814214 15.16901458 -17.30486744 13.72516097 -16.69967651 12.27384949 C-13.34492247 4.7469268 -8.51056515 -0.0936943 0 0 Z M-2.69140625 43.6015625 C-3.24078857 44.72651123 -3.7901709 45.85145996 -4.35620117 47.01049805 C-6.4053193 51.19952107 -8.46785605 55.38181744 -10.53442383 59.56225586 C-11.42544598 61.36937888 -12.31286315 63.17828417 -13.1965332 64.98901367 C-14.47043793 67.59775835 -15.75734996 70.19972936 -17.046875 72.80078125 C-17.43667038 73.60617844 -17.82646576 74.41157562 -18.22807312 75.24137878 C-20.86494316 80.51773935 -23.41167883 85.49809713 -29.32836914 87.48876953 C-30.73203735 87.67221924 -30.73203735 87.67221924 -32.1640625 87.859375 C-33.21996582 88.00858398 -34.27586914 88.15779297 -35.36376953 88.31152344 C-36.48251465 88.44848633 -37.60125977 88.58544922 -38.75390625 88.7265625 C-39.90101074 88.88415039 -41.04811523 89.04173828 -42.22998047 89.20410156 C-44.57657859 89.52635599 -46.92426071 89.84081304 -49.27294922 90.14746094 C-54.29786046 90.81496093 -59.30602438 91.58385385 -64.31640625 92.3515625 C-65.95430611 92.59716231 -67.59231439 92.842041 -69.23046875 93.0859375 C-70.37257812 93.25609375 -71.5146875 93.42625 -72.69140625 93.6015625 C-69.09738835 97.94747027 -65.42187339 101.91487041 -61.19140625 105.6640625 C-56.32894552 110.03410236 -51.63113984 114.5457549 -47.00390625 119.1640625 C-46.39160156 119.77193604 -45.77929688 120.37980957 -45.1484375 121.00610352 C-40.90005585 125.26836482 -39.53277933 127.05886553 -39.44140625 133.01953125 C-39.51166984 142.12744947 -41.14276023 150.96084442 -42.69140625 159.9140625 C-42.98143571 161.63720732 -43.2705049 163.36051405 -43.55859375 165.08398438 C-44.25849477 169.25845629 -44.97128369 173.43053345 -45.69140625 177.6015625 C-35.87246315 172.76100119 -26.19955774 167.78508061 -16.72265625 162.296875 C-5.70172673 156.0799404 -5.70172673 156.0799404 0.22875977 156.85131836 C8.51800573 159.20291246 16.2232784 164.18608874 23.74609375 168.2890625 C25.9459724 169.48455988 28.14692378 170.6779279 30.3506012 171.8664093 C31.71406546 172.60213264 33.07527363 173.34205582 34.4339447 174.08659363 C37.68415999 175.97853362 37.68415999 175.97853362 41.30859375 176.6015625 C40.62631123 166.59129979 38.84621342 156.84615397 37.03710938 146.98828125 C36.81603516 145.75207031 36.59496094 144.51585937 36.3671875 143.2421875 C36.06252563 141.57978027 36.06252563 141.57978027 35.75170898 139.88378906 C34.82194815 132.99689945 35.06247993 128.26133821 39.30859375 122.6015625 C41.76171875 120.07421875 41.76171875 120.07421875 44.55859375 117.6640625 C49.88157613 112.97783701 54.93574102 108.07016662 59.93359375 103.0390625 C60.63258789 102.33595947 61.33158203 101.63285645 62.05175781 100.90844727 C63.30324836 99.64755976 64.55385773 98.38579647 65.80322266 97.12280273 C66.96817118 95.9455737 68.13748888 94.77266737 69.30859375 93.6015625 C68.07294678 93.43551514 66.8372998 93.26946777 65.56420898 93.09838867 C60.95765244 92.47665024 56.35299359 91.84171417 51.7487793 91.20288086 C49.7600111 90.92879662 47.77075318 90.65824078 45.78100586 90.39135742 C42.91252185 90.00597441 40.04606868 89.60771963 37.1796875 89.20703125 C35.8558329 89.03339302 35.8558329 89.03339302 34.50523376 88.85624695 C22.56999699 87.15335863 22.56999699 87.15335863 18.77050781 82.8659668 C18.45823242 82.22570557 18.14595703 81.58544434 17.82421875 80.92578125 C17.45151855 80.19012939 17.07881836 79.45447754 16.69482422 78.6965332 C16.31986816 77.90206787 15.94491211 77.10760254 15.55859375 76.2890625 C15.14883301 75.46688232 14.73907227 74.64470215 14.31689453 73.79760742 C13.43479183 72.02294428 12.56223828 70.24350942 11.69824219 68.45996094 C10.2321152 65.44425209 8.73167003 62.44758895 7.22265625 59.453125 C4.56573888 54.17856128 1.93023902 48.89373627 -0.69140625 43.6015625 C-1.35140625 43.6015625 -2.01140625 43.6015625 -2.69140625 43.6015625 Z " fill="#000000" transform="translate(251.69140625,228.3984375)"/>
</svg>
