<?xml version="1.0" encoding="UTF-8"?>
<svg version="1.1" xmlns="http://www.w3.org/2000/svg" width="512" height="512">
<path d="M0 0 C8.07524227 7.55425889 13.57290262 17.76830035 14.23046875 28.90234375 C14.22783898 30.24746952 14.21328871 31.59261889 14.1875 32.9375 C14.18105469 33.63681641 14.17460937 34.33613281 14.16796875 35.05664062 C14.09754967 39.77911984 13.77581674 44.34509957 13 49 C13.71285156 49.4125 14.42570312 49.825 15.16015625 50.25 C26.32916276 56.98447499 34.06538569 65.45647555 37.65234375 78.34375 C38.13100311 82.00092262 38.18426213 85.6310363 38.1875 89.3125 C38.19974609 90.03373047 38.21199219 90.75496094 38.22460938 91.49804688 C38.23845487 96.64395477 37.41468981 101.0513815 36 106 C36.59941406 106.12761719 37.19882812 106.25523437 37.81640625 106.38671875 C41.01442384 107.28490974 43.30901231 109.07786593 46 111 C46.804375 111.53625 47.60875 112.0725 48.4375 112.625 C56.46203293 120.06237198 61.78050614 129.69550326 62.30859375 140.67578125 C62.47100618 148.154693 62.38673262 154.85889599 60 162 C60.88429688 162.24105469 61.76859375 162.48210937 62.6796875 162.73046875 C66.29105378 164.11128527 68.31127116 165.6884112 71.125 168.3125 C71.95257813 169.07175781 72.78015625 169.83101562 73.6328125 170.61328125 C82.54566217 179.59966928 86.46433335 189.36376118 87 202 C86.00238812 220.07917033 76.75105448 230.54971489 64.44335938 242.86303711 C63.38107224 243.93296011 62.31918348 245.00327877 61.25765991 246.07395935 C58.3901993 248.96323422 55.51631422 251.84603154 52.64047813 254.72696757 C50.83793036 256.53317521 49.03668367 258.34067037 47.2358551 260.148592 C40.93572306 266.47317552 34.62992823 272.79205543 28.31933594 279.10620117 C22.46584838 284.96331808 16.62560951 290.83342067 10.79130316 296.70963854 C5.75876875 301.77703434 0.7164895 306.8345988 -4.33315802 311.88494116 C-7.33863946 314.89121018 -10.34013196 317.90119986 -13.33161926 320.92140007 C-16.1506836 323.76691741 -18.98184008 326.59985701 -21.82209396 329.42421913 C-22.852627 330.45295897 -23.87904218 331.48584639 -24.90057755 332.52352142 C-40.77620516 348.63422636 -61.27185312 359.73195385 -84 362 C-86.29715791 361.63325015 -88.5828643 361.18938955 -90.85351562 360.68383789 C-101.83746034 358.87168594 -113.07441172 358.73227706 -122.83624268 364.74776459 C-138.11470174 375.89762007 -150.97837035 390.56162615 -163.78733444 404.37948096 C-169.56123841 410.60109133 -175.45387069 416.70668644 -181.34765625 422.81445312 C-187.36158032 429.05239759 -193.36391321 435.29898237 -199.29089355 441.61973572 C-200.18648483 442.57251907 -201.08207611 443.52530243 -202.00480652 444.50695801 C-203.67483061 446.28688687 -205.34029529 448.07110894 -207.00032043 449.86036682 C-207.73630966 450.64418732 -208.47229889 451.42800781 -209.23059082 452.23558044 C-209.86596016 452.91825202 -210.5013295 453.6009236 -211.15595245 454.30428219 C-214.67790617 457.54294036 -217.64660779 458.30877602 -222.375 458.375 C-223.29023438 458.40335937 -224.20546875 458.43171875 -225.1484375 458.4609375 C-231.19820214 457.48303034 -235.47919339 452.81203678 -239.65010071 448.59713745 C-240.1853835 448.06426908 -240.72066629 447.5314007 -241.27216977 446.9823848 C-243.05251244 445.20764765 -244.8256574 443.42589498 -246.59887695 441.64404297 C-247.87848963 440.36550391 -249.15853532 439.08739809 -250.4389801 437.80969238 C-253.90598083 434.34752863 -257.36671634 430.8791643 -260.82621408 427.40950537 C-264.44727342 423.77965209 -268.0736143 420.15508231 -271.69926453 416.52981567 C-277.7828247 410.44531982 -283.86250359 404.35696765 -289.93969727 398.26611328 C-296.9721538 391.21790756 -304.00984726 384.17496608 -311.05054885 377.13499725 C-317.82116891 370.36498674 -324.58893118 363.59212736 -331.355093 356.81766129 C-334.2366738 353.93254444 -337.11910721 351.04828338 -340.00219154 348.16466904 C-343.39198121 344.7738775 -346.77921837 341.38055652 -350.16446495 337.98522949 C-351.40968695 336.73707842 -352.65576457 335.48978032 -353.90274048 334.2433815 C-355.59909084 332.54751931 -357.29235036 330.84863161 -358.9848175 329.14889526 C-359.73304408 328.40299159 -359.73304408 328.40299159 -360.49638635 327.64201915 C-364.78758622 323.32014814 -365.25695712 320.98752848 -365.5 314.875 C-365.60828125 312.95300781 -365.60828125 312.95300781 -365.71875 310.9921875 C-365.00704776 302.27487535 -353.49038277 294.36041559 -347.69140625 288.59375 C-346.7146999 287.61891355 -345.73821766 286.64385251 -344.76194763 285.6685791 C-342.21772539 283.12813699 -339.67051264 280.59071491 -337.12261963 278.05395508 C-334.51284118 275.45448873 -331.90596518 272.85211506 -329.29882812 270.25 C-324.20202128 265.16385082 -319.10204492 260.0808953 -314 255 C-310.91253665 256.47128738 -308.90431921 257.90162881 -306.56640625 260.4140625 C-305.92437256 261.08912842 -305.28233887 261.76419434 -304.62084961 262.4597168 C-303.60196655 263.53153198 -303.60196655 263.53153198 -302.5625 264.625 C-289.80050186 277.65025142 -274.91472438 286.31234895 -256.24609375 287.06640625 C-240.98338865 286.75417281 -227.98571983 282.46129388 -216 273 C-215.36449219 272.52820313 -214.72898438 272.05640625 -214.07421875 271.5703125 C-205.24224845 264.63790122 -198.846784 253.69019801 -196.23828125 242.828125 C-195 240 -195 240 -192.3125 238.53125 C-191.219375 238.1909375 -190.12625 237.850625 -189 237.5 C-173.9191522 232.27906703 -162.69478604 223.01730294 -155 209 C-153.58522764 205.5898474 -152.35231545 202.20711919 -151.265625 198.6796875 C-148.93815429 193.75177113 -144.36181797 192.69389852 -139.5 190.9375 C-124.14518321 184.59159786 -113.45500818 172.76550305 -106.97265625 157.5703125 C-105.91429855 154.93854088 -105.91429855 154.93854088 -105.24609375 151.8359375 C-104 149 -104 149 -101.3125 147.53125 C-100.219375 147.1909375 -99.12625 146.850625 -98 146.5 C-81.82773124 140.90122118 -71.24148653 131.09126571 -63.25 116.0625 C-56.33915555 101.23725613 -55.40004738 83.95920079 -60.73730469 68.40893555 C-66.38359733 53.55581499 -77.88871718 42.90251132 -89 32 C-87.70624351 29.15864203 -86.34040301 27.08579035 -84.14599609 24.87133789 C-83.57134613 24.28715591 -82.99669617 23.70297394 -82.40463257 23.10108948 C-81.7838382 22.48120651 -81.16304382 21.86132355 -80.5234375 21.22265625 C-79.87935944 20.57429306 -79.23528137 19.92592987 -78.57168579 19.25791931 C-77.20740822 17.88790412 -75.84050928 16.52049504 -74.47119141 15.15551758 C-72.39465476 13.082125 -70.33175059 10.99582412 -68.26953125 8.90820312 C-66.93831235 7.57470937 -65.60630546 6.24200171 -64.2734375 4.91015625 C-63.66478851 4.29229752 -63.05613953 3.67443878 -62.42904663 3.03785706 C-45.13803363 -14.07170578 -19.08424843 -15.61438508 0 0 Z " fill="#000000" transform="translate(365,47)"/>
<path d="M0 0 C15.10608053 8.97051935 27.91115581 25.57267087 40.28617859 37.88088989 C43.2797576 40.85660288 46.28164149 43.82354343 49.2910614 46.78323364 C52.95351706 50.38528658 56.60083211 54.00204449 60.23804283 57.62958145 C61.61590284 58.99893397 62.99885394 60.3631852 64.38715553 61.72195053 C80.90231229 77.90410088 80.90231229 77.90410088 82.09159851 89.68508911 C81.88818735 101.44704051 80.0313757 109.72169102 71.75175476 118.48196411 C64.02383368 125.16806648 55.79969488 126.79683795 45.88066101 126.76321411 C40.93593542 126.32807826 36.8611484 124.68648292 32.46269226 122.46243286 C32.89581726 123.44469849 32.89581726 123.44469849 33.33769226 124.44680786 C37.40840812 134.45398434 38.09188836 143.66731504 33.90800476 153.79055786 C29.05053554 162.77031177 22.21112219 168.50752634 12.46269226 171.46243286 C3.92212227 173.40937131 -4.60969816 172.161984 -12.53730774 168.46243286 C-12.06293274 169.59680786 -11.58855774 170.73118286 -11.09980774 171.89993286 C-7.74551152 181.00445118 -7.96207233 189.7926809 -11.47090149 198.88040161 C-15.41455995 206.80865617 -21.66458056 212.59621389 -29.84980774 215.96243286 C-40.14746499 219.17955312 -48.81636772 217.74883161 -58.53730774 213.46243286 C-58.24855774 214.11727661 -57.95980774 214.77212036 -57.66230774 215.44680786 C-53.56311926 225.52397955 -52.93903681 234.68396055 -57.16230774 244.86087036 C-61.25226857 252.59926216 -67.1057237 257.80665727 -75.05293274 261.42727661 C-83.09386903 263.81611979 -92.73139825 264.01734769 -100.59980774 260.89993286 C-109.53866964 255.72904236 -116.75085452 247.49407265 -124.02949524 240.26541138 C-125.20409988 239.10238965 -126.38317401 237.94386513 -127.56660461 236.78982544 C-129.30123073 235.0980858 -131.02201825 233.39327606 -132.74043274 231.68508911 C-133.26340942 231.17962051 -133.78638611 230.67415192 -134.32521057 230.15336609 C-140.97357238 223.46566446 -143.65296729 216.18217441 -143.84980774 206.83743286 C-143.74745393 196.97052557 -141.0324308 190.29234509 -134.25996399 183.14602661 C-126.21761153 175.28604042 -118.62655477 173.41012509 -107.53730774 173.46243286 C-104.12795843 173.89729884 -100.85152993 174.55719384 -97.53730774 175.46243286 C-98.64138977 174.44536255 -98.64138977 174.44536255 -99.76777649 173.40774536 C-107.71358175 165.90201547 -113.65020849 158.6575578 -114.74043274 147.35696411 C-114.95992546 137.60782899 -112.04611254 128.81547594 -105.53730774 121.46243286 C-95.84663001 113.08303496 -87.08867735 111.82447909 -74.53730774 112.46243286 C-72.8629832 112.75488155 -71.19159388 113.07227104 -69.53730774 113.46243286 C-70.14058899 112.81016724 -70.74387024 112.15790161 -71.36543274 111.48587036 C-80.82511413 101.14125103 -85.2143042 93.7375584 -84.84590149 79.44680786 C-84.22256821 71.39870727 -81.24359627 65.16741175 -75.73262024 59.28665161 C-67.49774824 52.44379534 -58.05449676 49.71369258 -47.53730774 50.46243286 C-44.80068848 50.98347792 -42.21739301 51.68277169 -39.53730774 52.46243286 C-39.94722961 51.8217688 -40.35715149 51.18110474 -40.77949524 50.52102661 C-46.65933968 41.08232895 -48.93272973 32.9491357 -47.10762024 21.84915161 C-44.70467052 12.31151784 -38.99140675 5.89984342 -30.84590149 0.65383911 C-21.6526768 -4.09054926 -9.37896065 -4.63747326 0 0 Z " fill="#000000" transform="translate(197.5373077392578,42.537567138671875)"/>
<path d="M0 0 C3.6267479 1.70461544 5.97845844 3.72508251 8.82861328 6.56982422 C9.29415619 7.03186249 9.7596991 7.49390076 10.23934937 7.96994019 C11.77139469 9.4932086 13.29603781 11.02364624 14.8203125 12.5546875 C15.8856839 13.61871109 16.95135199 14.68243768 18.01730347 15.74588013 C20.24803934 17.97367021 22.47512484 20.20503042 24.69970703 22.43896484 C27.54885507 25.29950703 30.40688735 28.15097693 33.26771736 30.99983025 C35.46923241 33.19411203 37.66595393 35.3931429 39.86126328 37.59363174 C40.91314844 38.64684934 41.96651656 39.69858805 43.02139664 40.748806 C44.49588881 42.21820891 45.96380084 43.69388908 47.43017578 45.17138672 C48.26638458 46.00918671 49.10259338 46.84698669 49.96414185 47.71017456 C53.34697016 51.5150007 54.30408075 54.31136572 54.375 59.375 C54.40335938 60.29023438 54.43171875 61.20546875 54.4609375 62.1484375 C53.48400757 68.19215654 48.8189666 72.47320531 44.6105957 76.64337158 C43.81340984 77.44523742 43.81340984 77.44523742 43.00011921 78.26330256 C41.23005057 80.0413057 39.45297111 81.81212483 37.67578125 83.58300781 C36.4004948 84.86100607 35.12563384 86.13942903 33.85116577 87.41824341 C30.39723411 90.8812768 26.93702529 94.33797323 23.4753685 97.79328251 C19.85208217 101.4114996 16.23368451 105.03460032 12.61450195 108.65692139 C6.53858702 114.73647233 0.4584728 120.81179967 -5.62402344 126.88476562 C-12.65784945 133.90769802 -19.6844283 140.9378196 -26.70730495 147.97169995 C-32.73853822 154.01200479 -38.77365478 160.04840886 -44.81204319 166.08156085 C-48.41806231 169.68446083 -52.02271382 173.28870115 -55.62387085 176.89646149 C-59.00759574 180.28595763 -62.39616417 183.67053532 -65.78855515 187.05135727 C-67.03351653 188.29367133 -68.27677387 189.53769573 -69.51820755 190.783535 C-71.21109285 192.48187393 -72.90999953 194.17395036 -74.6105957 195.86456299 C-75.10203914 196.36046787 -75.59348257 196.85637274 -76.09981823 197.36730504 C-80.37860562 201.59740358 -83.35596937 203.29069985 -89.375 203.375 C-90.29023438 203.40335938 -91.20546875 203.43171875 -92.1484375 203.4609375 C-98.59044155 202.41962726 -103.14687952 197.1351313 -107.55615234 192.67089844 C-108.18125702 192.04608582 -108.80636169 191.42127319 -109.45040894 190.77752686 C-111.50036595 188.72618465 -113.54316137 186.66786608 -115.5859375 184.609375 C-117.01182013 183.17975937 -118.43814709 181.75058679 -119.86489868 180.32183838 C-123.60769709 176.5714262 -127.34444867 172.81504546 -131.07995605 169.05737305 C-134.89731352 165.21950853 -138.72038232 161.38734264 -142.54296875 157.5546875 C-150.03423396 150.04201219 -157.51912091 142.52301655 -165 135 C-162.27818031 133.60573605 -159.75497025 132.5592857 -156.796875 131.7734375 C-145.46231853 128.64498685 -135.23093377 124.80706167 -125 119 C-124.01773438 118.44570313 -123.03546875 117.89140625 -122.0234375 117.3203125 C-105.66993621 107.47050913 -92.64700447 92.92071244 -79.28704047 79.48982835 C-76.49471986 76.6848595 -73.69659392 73.88569298 -70.89912415 71.08586121 C-65.62207989 65.80264304 -60.35014703 60.51435574 -55.08011037 55.22414845 C-49.07184635 49.19339683 -43.05778589 43.16843946 -37.04327333 37.14392054 C-24.68913346 24.7689715 -12.34215693 12.38690004 0 0 Z " fill="#000000" transform="translate(457,302)"/>
<path d="M0 0 C3.12173693 1.64520519 5.49347327 3.52689363 8 6 C8.60070312 6.57234375 9.20140625 7.1446875 9.8203125 7.734375 C11.2443992 9.1253434 12.62711565 10.55847144 14 12 C12.65632083 15.0774721 11.28883395 16.83896303 8.6875 18.94140625 C2.4337057 24.23536187 -3.23262746 30.1266218 -9 35.9375 C-10.16773374 37.11026009 -11.33570074 38.28278798 -12.50390625 39.45507812 C-15.33863234 42.30071689 -18.17018824 45.14947453 -21 48 C-25.07637122 46.37724852 -27.82612042 43.46284177 -30.859375 40.40625 C-31.40861633 39.85892212 -31.95785767 39.31159424 -32.52374268 38.74768066 C-33.67925859 37.5935222 -34.83226685 36.43684833 -35.98291016 35.27783203 C-37.750735 33.49926054 -39.5290213 31.73165237 -41.30859375 29.96484375 C-42.43032971 28.84178692 -43.55144551 27.71811024 -44.671875 26.59375 C-45.20617126 26.0635022 -45.74046753 25.53325439 -46.29095459 24.98693848 C-50 21.22993854 -50 21.22993854 -50 19 C-44.82385456 16.26248275 -39.63205838 13.55829683 -34.42382812 10.88232422 C-32.65820754 9.96952804 -30.89700712 9.04812447 -29.140625 8.11767578 C-9.36312223 -2.3441737 -9.36312223 -2.3441737 0 0 Z " fill="#000000" transform="translate(277,9)"/>
</svg>
